<?xml version="1.0" encoding="utf-8"?>
<!-- Generator: Adobe Illustrator 22.1.0, SVG Export Plug-In . SVG Version: 6.00 Build 0)  -->
<svg version="1.1" id="Layer_1" xmlns="http://www.w3.org/2000/svg" xmlns:xlink="http://www.w3.org/1999/xlink" x="0px" y="0px"
	 viewBox="0 0 1280 1024" style="enable-background:new 0 0 1280 1024;" xml:space="preserve">
<style type="text/css">
	.st0{fill:#F2E6D4;}
	.st1{fill:#FFD1BD;}
	.st2{fill:#FB5D64;}
	.st3{fill:#D7E0FF;stroke:#525587;stroke-width:2.33;stroke-miterlimit:10;}
	.st4{fill:none;stroke:#FFD1BD;stroke-width:6.99;stroke-miterlimit:10;}
	.st5{fill:none;stroke:#FB5822;stroke-width:3.49;stroke-linecap:round;stroke-linejoin:round;}
	.st6{fill:#FF9088;}
	.st7{fill:#FFFFFF;}
	.st8{fill:none;stroke:#525587;stroke-width:4.3;stroke-linecap:round;stroke-linejoin:round;}
	.st9{fill:#EECB55;}
	.st10{fill:#46DBC9;}
	.st11{fill:#525587;}
	.st12{fill:#7A7A87;}
	.st13{fill:none;stroke:#525587;stroke-width:4.44;stroke-linecap:round;stroke-linejoin:round;}
	.st14{fill:none;stroke:#525587;stroke-width:2.33;stroke-linecap:round;stroke-linejoin:round;}
	.st15{fill:#F4F7FF;}
</style>
<path class="st0" d="M1154.8,576.6c8.6,110.6,41.2,212.9,6.3,278.8s-137.5,95.5-256.8,127.7c-119.5,32.2-255.7,66.9-359.2,18.5
	C441.5,953,370.7,821.3,394.2,714.7s141.4-188.2,227.6-278.2s140.6-188.4,227.8-224.6s207.8-10,260.2,62.5
	C1161.9,347,1146.4,466,1154.8,576.6"/>
<rect x="1096.1" y="899.1" class="st1" width="53" height="70.6"/>
<rect x="392.8" y="316.4" class="st1" width="662.2" height="501.1"/>
<path class="st2" d="M425.1,336.9c0,5.2-4.2,9.4-9.4,9.4c-5.2,0-9.4-4.2-9.4-9.4c0-5.2,4.2-9.4,9.4-9.4
	C420.9,327.5,425.1,331.7,425.1,336.9L425.1,336.9"/>
<path class="st2" d="M461.4,336.9c0,5.2-4.2,9.4-9.4,9.4c-5.2,0-9.4-4.2-9.4-9.4c0-5.2,4.2-9.4,9.4-9.4c0,0,0,0,0,0
	C457.2,327.5,461.4,331.7,461.4,336.9C461.4,336.9,461.4,336.9,461.4,336.9"/>
<path class="st2" d="M497.6,336.9c0,5.2-4.2,9.4-9.4,9.4c-5.2,0-9.4-4.2-9.4-9.4c0-5.2,4.2-9.4,9.4-9.4S497.6,331.7,497.6,336.9
	L497.6,336.9"/>
<rect x="1103.6" y="925.2" class="st2" width="13.3" height="13.3"/>
<path class="st3" d="M1110.3,925.2v-26.1"/>
<circle class="st4" cx="1148.3" cy="934.9" r="18.2"/>
<rect x="743.1" y="350.9" transform="matrix(0.5 -0.866 0.866 0.5 8.9994 1037.8961)" class="st5" width="320.5" height="320.5"/>
<path class="st6" d="M494.2,832.1c0-1.8-3.8-9.4-13.3-9.4c-5.6,0-14.2,5.3-14.2,6c6.8,1.5,13,10.2,17.1,10.2
	C488,838.9,494.2,836.4,494.2,832.1"/>
<rect x="1186.6" y="954.1" class="st6" width="88.4" height="24.9"/>
<path class="st6" d="M1126,374c9.9-35.4-10.7-72.1-46.1-82s-72.1,10.7-82,46.1c-3.3,11.7-3.3,24.2,0,35.9H1126z"/>
<path class="st7" d="M781.5,727.8c0,8.6-7.5,39.3-41.3,39.3c-30.7,0-108.7-132.1-111.1-137.2c-8.1-0.8-22.2-11.3-26.2-25.5
	c-0.6-2.2,8.6-14.7,18.8-11.7c2.4,0.7-7.8-12-9.2-14.2c-3.2-5-1.3-11.8,0.3-11.8c1.5,0,21.8,27.5,23.3,27.6c1.5,0.1,13.4,5.6,14,6.7
	c0.6,1.1,0,17.7,2.2,20.8c2.2,3.1,81.3,87.3,81.3,87.3c0.7-8.1,8.8-30.2,10-32.6C744.9,674.2,781.5,702.3,781.5,727.8"/>
<path class="st8" d="M615.6,597.2c-1.7-2.3-2.8-9.3,2.7-9.4c18.4,0,28,5.7,28,8.5c0,2.8,0,17.3,1.5,19.9c0.5,0.8,8.3,9.5,18.9,21
	c4.8,5.5,12.7,13.8,12.7,13.8c21.6,23.3,46.6,50.2,48.8,52.7c0.8-4.9,6.3-22.8,8.9-28.2"/>
<path class="st8" d="M685.4,718c-28.7-37.6-57.7-87-61.6-93.1"/>
<path class="st8" d="M770.6,740c-1.9,4.9-10.5,21.7-36.9,21.7c-4.9,0-11.1-3.6-18.1-9.7"/>
<path class="st9" d="M800.2,542.6c-1.9-11-10.3-33.9-10.3-53.8c0-30,18.5-47,53.3-47c24.5,0,34.3,16.1,38,24
	c3.1,6.7,1.3,13.9,4.7,20.8c13.8,27.5,25.2,24.7,45.4,58.7c4.9,8.2,7.7,37.1,6.1,46.2c-8.6,0.4-20.1,4.3-20.1,4.3
	c-4.3,4.4-6.6,10.4-6.6,16.5c-4-3.3-25.1-20.4-49.5-20.4c-6.6,0-37.8,5.7-45.9,11.9c-1.4-2-8.1-5.5-10.7-5.5
	c-4.6,0.6-8.4,0.9-12,2.2c-4.1-13.9,7.8-32.6,7.8-54.3C800.7,545.1,800.5,543.9,800.2,542.6"/>
<path class="st10" d="M806.1,599.4c-50.5,0-67.7,68.7-67.7,75.7c0,6.9,38.8,31.1,44.2,31.1s37.9-80.1,37.9-85.3
	S816.1,599.3,806.1,599.4"/>
<path class="st8" d="M770.6,603.6c-27.4,19.2-37.5,60.8-37.5,66.1c0,6.9,38.8,31.1,44.2,31.1s37.9-80.1,37.9-85.3
	s-4.5-21.5-14.5-21.5"/>
<path class="st10" d="M855.9,593.4c123.1-8.1,105.8,254.8,96.4,265c-9.4,10.3-116,41.5-128.8,34.8
	C810.7,886.5,698.4,603.7,855.9,593.4"/>
<path class="st7" d="M873.7,538.2c0,0-2,12.3-2.2,16.1c-0.5,6.4,2.2,45.4,3.2,52.1c-3.8,4.3-31.6,8.2-34.7,5.8
	c0-5.4-2.7-33.1-3.8-36.9c-20.8-2.7-37.1-27.7-37.1-58.2c0-6.1,0.7-12.2,2-18.1c6.3-2,15.4-11.9,16.8-15.5l-1.4-3.6
	c5.9,19,41.6,36.5,54.7,38l-1.4,2.2c1.9-3.8,5.2-6.2,8.9-6.2c5.8,0,10.5,5.8,10.5,13.1c0,7.2-4.7,13.1-10.5,13.1
	c-2.8-0.1-5.5-1.4-7.3-3.6"/>
<path class="st8" d="M810.6,558.7c-10-10.7-16.4-27.6-16.4-46.8c0-6.1,0.7-12.2,2-18.1"/>
<path class="st8" d="M858,560.3c-6.5,6.3-14.4,10-22.9,10c-3.7,0-7.3-0.7-10.7-2"/>
<path class="st8" d="M864.8,515c1.9-3.8,5.2-6.2,8.9-6.2c5.8,0,10.5,5.8,10.5,13.1c0,7.2-4.7,13.1-10.5,13.1
	c-2.8-0.1-5.5-1.4-7.3-3.6"/>
<path class="st8" d="M835.1,499.6c11.6,7.3,24.4,12.3,31.1,13.1"/>
<path class="st8" d="M811.5,474.7c1.5,4.9,5,9.8,9.7,14.3"/>
<path class="st8" d="M813,478.2c-1.4,3.6-10.5,13.5-16.8,15.5"/>
<path class="st8" d="M887.6,493c11.1,15.8,21.7,18.7,38.5,47c4.9,8.2,7.8,36.7,6.2,45.8"/>
<path class="st8" d="M836.4,436.4h1.5c24.5,0,34.3,16.1,38,24c1.7,3.8,1.9,7.7,2.4,11.6"/>
<path class="st8" d="M787.5,595.2c-4.1-13.9,7.8-32.6,7.8-54.3c0-8.6-10.7-34.9-10.7-57.5c0-20.4,8.6-34.8,25.1-41.9"/>
<path class="st8" d="M867.4,571.6c-0.6-10.2-1.1-19.7-0.8-22.6"/>
<path class="st8" d="M853.8,606.3c7.3-1.3,14.2-3.2,16-5.1c-0.4-2.4-0.9-8.9-1.5-16.6"/>
<path class="st8" d="M831.3,570c1,3.8,3.8,31.5,3.8,36.9"/>
<path class="st8" d="M790.8,615.4c10.2-12.1,24.2-21,43.1-25.1"/>
<path class="st8" d="M768.7,724.3c-2.7-28.6-1.6-56.6,6.1-79.7"/>
<path class="st8" d="M953,810.1c-1.1,23.8-3.8,40.5-6.1,42.9c-9.4,10.3-116,41.5-128.8,34.8c-5.3-2.8-28.2-54-41.3-113.4"/>
<path class="st8" d="M935.9,660.4c12.2,35.5,16.8,78.4,17.5,114.6"/>
<path class="st8" d="M868.6,588.9c13.4,2.3,25.7,8.6,35.5,17.9"/>
<path class="st11" d="M827.8,509.5c0,3.2-1.3,5.8-2.8,5.8s-2.8-2.6-2.8-5.8c0-3.2,1.3-5.8,2.8-5.8S827.8,506.3,827.8,509.5"/>
<path class="st8" d="M813,515.3c-0.4,2.6-2.4,13.3-6.7,17.6"/>
<path class="st8" d="M821,546.9c1.8,0.3,9.1-2.1,10.8-7"/>
<path class="st7" d="M989.3,694.6c0,0,28.7,82.4,28.7,91.6s-85.8,71.4-85.8,71.4l-43.8,3.7l76.1-78.1L935.8,712L989.3,694.6z"/>
<path class="st8" d="M930.5,706.7c1.6,4.2,28.5,71.1,28.5,71.1l-74.8,77.3"/>
<path class="st8" d="M1006.4,759c3.6,11.9,6.3,20.8,6.3,21.9c0,3.7-13.8,15.1-13.8,15.1"/>
<path class="st8" d="M983.9,687.6c0,0,4.5,14.2,10,31.5"/>
<path class="st10" d="M910.7,599c50.6-14.3,91.7,73.9,87.1,86.1c-4.7,12.1-63.4,31.8-73.3,26.7C914.6,706.7,877.8,608.3,910.7,599"
	/>
<path class="st8" d="M930.5,706.7c-5.2,0.8-9.3,0.8-11.3-0.3c-3.1-1.6-8.7-12-14-26.1"/>
<path class="st8" d="M990.9,667.5c1.7,5.7,2.3,10,1.5,12.2c-2.4,6.4-19.9,14.9-37.3,20.7"/>
<path class="st8" d="M892.6,631.9c-2.1-18.8,0.4-34.8,12.8-38.3c28-7.9,53,15.5,69,40"/>
<path class="st12" d="M763,829.2c50.8,0,237.5,93.9,237.5,99.8c0,5.9,1,42.1-5.5,42.1c-198,0-286.7-38.1-286.7-102.6
	C708.3,842.8,734.8,829.2,763,829.2"/>
<path class="st7" d="M1010.8,930.6c-4,0-6.3,36.5-3.8,40.6c6.8,2.7,33.8,6.7,37.8,6.7s27.5-4,27.5-26.9
	C1072.4,935.6,1048.7,930.6,1010.8,930.6"/>
<path class="st8" d="M818.8,839.6c73.8,27,176.3,79.7,176.3,84.1c0,5.9,1,42.1-5.5,42.1c-198,0-286.7-38.1-286.7-102.7
	c0-25.7,26.5-39.3,54.7-39.3c4.6,0.1,9.1,0.6,13.6,1.5"/>
<path class="st8" d="M1005.5,925.2c-1.4,0-2.5,4.5-3.4,10.5"/>
<path class="st8" d="M1002.1,935.7c-1.6,11.1-2,27.5-0.4,30.1c6.8,2.7,33.8,6.7,37.8,6.7c4,0,27.5-4,27.5-27
	c0-12-14.6-17.7-39.3-19.6"/>
<path class="st8" d="M612.5,565.6c-1.4-1.6-2.6-3.4-3.7-5.3c-1.4-3.5-9.2,3.7-1.9,14.5"/>
<path class="st8" d="M633.4,589.3c-1.8-1.4-8-8.4-13.8-15.1"/>
<path class="st8" d="M607.7,587.3c-8,3.1,3.8,18,9.7,23.4"/>
<path class="st8" d="M599.4,595.2c-4.8,6.3,8.8,19.3,12.7,21.2"/>
<path class="st12" d="M1030,792.8c26.9,0,42.3,26.9,42.3,42.9c0,91.3-262.8,135.4-269.1,135.4s-13.6-34.8-13.6-37.4
	C789.7,931.1,973.5,792.8,1030,792.8"/>
<path class="st8" d="M834.8,890.2c30.4-21.6,70.3-48.4,106.7-69.2"/>
<path class="st8" d="M950.8,926.7c-71.3,26.2-149.5,39.1-152.9,39.1c-6.3,0-13.6-34.8-13.6-37.5c0-0.6,8.6-7.5,22.6-17.9"/>
<path class="st8" d="M971.5,804.9c21.7-10.7,40.6-17.5,53.1-17.5c26.9,0,42.3,26.9,42.3,42.9c0,22.3-15.6,41.7-39.4,58.4"/>
<path class="st7" d="M778.9,935.6c-5.4,0-62.4,9.7-62.4,27.3c0,20.3,12.3,28.6,19.1,28.6c6.8,0,48.9-9.2,52.7-15.7
	C792.2,969.4,778.9,935.7,778.9,935.6"/>
<path class="st8" d="M763.8,979.1c9.5-2.8,17.6-5.9,19.2-8.6c3.8-6.4-9.4-40.2-9.4-40.2c-5.4,0-62.4,9.7-62.4,27.4
	c0,20.3,12.3,28.6,19.1,28.6c2.4-0.1,4.8-0.4,7.1-0.9"/>
<path class="st8" d="M1118.5,366.5c9.9-35.4-10.7-72.1-46.1-82c-35.4-9.9-72.1,10.7-82,46.1c-3.3,11.8-3.3,24.2,0,35.9H1118.5z"/>
<rect x="1180.2" y="947.6" class="st13" width="88.4" height="24.9"/>
<path class="st13" d="M1224.4,947.6V247.2h-169.9v34.9"/>
<rect x="412.9" y="960.1" class="st1" width="181.1" height="26.1"/>
<rect x="440.5" y="939" class="st6" width="181.1" height="21.7"/>
<rect x="419.8" y="917.3" class="st1" width="181.1" height="21.7"/>
<path class="st6" d="M522.1,809.6c-4.4-0.4-10.4-17.4-4.9-25.9c11.6-17.9,41.8-23.8,52.9-49.2C570,743.2,578.8,814.2,522.1,809.6"/>
<path class="st14" d="M503.4,872c0-31.2,23.4-80.9,38.2-91.2"/>
<path class="st14" d="M528.3,796.7c-1-2.2-2.7-9.3-2.1-13.4"/>
<path class="st14" d="M536.2,786c1.8,0.5,10.2-0.1,14.9-1.5"/>
<path class="st14" d="M506.6,849c-0.1-3-4.7-18.8-22.2-16.8"/>
<path class="st14" d="M489.4,832.1c-0.6-1.4-3.2-4.2-4.5-4.6"/>
<path class="st2" d="M525.1,917.3l9.3-45.3h-59.2l9.3,45.3H525.1z"/>
<path class="st5" d="M325.6,460.8l109.9,277.5l175.7-194.9L325.6,460.8z"/>
<path class="st15" d="M499.9,441.9v82.2h36.7l18,30.9l18-30.9h36.7v-82.2H499.9z"/>
<path class="st2" d="M538.3,481.8c0,3.2-2.6,5.7-5.7,5.7c-3.2,0-5.7-2.6-5.7-5.7c0-3.2,2.6-5.7,5.7-5.7l0,0
	C535.8,476.1,538.3,478.6,538.3,481.8"/>
<path class="st2" d="M560.3,481.8c0,3.2-2.6,5.7-5.7,5.7c-3.2,0-5.7-2.6-5.7-5.7c0-3.2,2.6-5.7,5.7-5.7c0,0,0,0,0,0
	C557.8,476.1,560.3,478.6,560.3,481.8"/>
<path class="st2" d="M582.2,481.8c0,3.2-2.5,5.7-5.7,5.7s-5.7-2.5-5.7-5.7c0-3.2,2.5-5.7,5.7-5.7c0,0,0,0,0,0
	C579.7,476.1,582.2,478.6,582.2,481.8"/>
</svg>
