<?xml version="1.0" encoding="utf-8"?>
<!-- Generator: Adobe Illustrator 22.1.0, SVG Export Plug-In . SVG Version: 6.00 Build 0)  -->
<svg version="1.1" id="Layer_1" xmlns="http://www.w3.org/2000/svg" xmlns:xlink="http://www.w3.org/1999/xlink" x="0px" y="0px"
	 viewBox="0 0 1280 1024" style="enable-background:new 0 0 1280 1024;" xml:space="preserve">
<style type="text/css">
	.st0{fill:#F2E6D4;}
	.st1{fill-rule:evenodd;clip-rule:evenodd;fill:#FFD1BD;}
	.st2{fill-rule:evenodd;clip-rule:evenodd;fill:#FF9088;}
	.st3{fill:#FB5D64;}
	.st4{fill-rule:evenodd;clip-rule:evenodd;fill:#FB5D64;}
	.st5{fill:#D7E0FF;stroke:#525587;stroke-width:2.33;stroke-miterlimit:10;}
	.st6{fill:none;stroke:#FFD1BD;stroke-width:6.99;stroke-miterlimit:10;}
	.st7{fill:none;stroke:#FB5822;stroke-width:3.49;stroke-linecap:round;stroke-linejoin:round;stroke-miterlimit:10;}
	.st8{fill:#FFD1BD;}
	.st9{fill:#FF9088;}
	.st10{fill:#FFFFFF;}
	.st11{fill:none;stroke:#525587;stroke-width:4.3;stroke-linecap:round;stroke-linejoin:round;stroke-miterlimit:10;}
	.st12{fill:#EECB55;}
	.st13{fill:#46DBC9;}
	.st14{fill:#525587;}
	.st15{fill:#3C3744;}
	.st16{fill:none;stroke:#525587;stroke-width:4.44;stroke-linecap:round;stroke-linejoin:round;stroke-miterlimit:10;}
	.st17{fill:none;stroke:#525587;stroke-width:2.33;stroke-linecap:round;stroke-linejoin:round;stroke-miterlimit:10;}
</style>
<g transform="matrix(1.02109,0,0,1.02109,1033.43,682.717)">
	<path class="st0" d="M146.1-177.1c6.4,83.3,31,160.3,4.7,210c-26.3,49.6-103.6,71.9-193.4,96.1c-90,24.3-192.5,50.3-270.5,13.9
		c-78-36.6-131.3-135.7-113.6-216c17.7-80.4,106.5-141.7,171.4-209.5c64.8-67.8,105.8-141.8,171.5-169.1
		c65.8-27.2,156.5-7.6,196,47.1C151.4-350,139.7-260.4,146.1-177.1"/>
</g>
<g transform="matrix(-1.02109,0,0,1.02109,1932.23,771.917)">
	<rect x="738.5" y="31.5" class="st1" width="39.9" height="-53.1"/>
</g>
<g transform="matrix(-1.02109,0,0,1.02109,1047.26,-43.6632)">
	<rect x="-57.4" y="715.6" class="st2" width="498.7" height="-377.4"/>
</g>
<g transform="matrix(1.02109,0,0,1.02109,223.613,336.108)">
	<path class="st3" d="M389.7-18.2c0,3.9-3.2,7.1-7.1,7.1c-3.9,0-7.1-3.2-7.1-7.1c0-3.9,3.2-7.1,7.1-7.1
		C386.5-25.3,389.7-22.1,389.7-18.2"/>
</g>
<g transform="matrix(1.02109,0,0,1.02109,263.845,336.108)">
	<path class="st3" d="M377.6-18.2c0,3.9-3.2,7.1-7.1,7.1c-3.9,0-7.1-3.2-7.1-7.1c0-3.9,3.2-7.1,7.1-7.1
		C374.4-25.3,377.6-22.1,377.6-18.2"/>
</g>
<g transform="matrix(1.02109,0,0,1.02109,304.077,336.108)">
	<path class="st3" d="M365.5-18.2c0,3.9-3.2,7.1-7.1,7.1c-3.9,0-7.1-3.2-7.1-7.1c0-3.9,3.2-7.1,7.1-7.1
		C362.3-25.3,365.5-22.1,365.5-18.2"/>
</g>
<g transform="matrix(-1.02109,0,0,1.02109,1904.85,766.431)">
	<rect x="735.9" y="13.4" class="st4" width="10" height="-10"/>
</g>
<g transform="matrix(0,-1.02109,-1.02109,0,998.521,974.593)">
	<path class="st5" d="M200.5-146.7h19.7"/>
</g>
<g transform="matrix(0,-1.02109,-1.02109,0,1026.24,979.665)">
	<circle class="st6" cx="198.1" cy="-148.2" r="13.7"/>
</g>
<g transform="matrix(-0.884291,-0.510543,-0.510543,0.884291,819.468,286.552)">
	
		<rect x="-345.4" y="177.5" transform="matrix(-2.541377e-06 -1 1 -2.541377e-06 -281.5322 -167.9793)" class="st7" width="241.4" height="-241.4"/>
</g>
<g transform="matrix(1.02109,0,0,1.02109,300.241,882.802)">
	<path class="st8" d="M366.6-180.7c0-1.3-2.8-7.1-10-7.1c-4.2,0-10.7,4-10.7,4.5c5.1,1.1,9.8,7.7,12.9,7.7
		C362.1-175.6,366.6-177.4,366.6-180.7"/>
</g>
<g transform="matrix(-1.02109,0,0,1.02109,2172.45,843.241)">
	<rect x="878.9" y="-31.4" class="st2" width="66.5" height="-18.7"/>
</g>
<g transform="matrix(1.02109,0,0,1.02109,1001.49,283.631)">
	<path class="st9" d="M155.7,61.1c1.2-4.3,1.8-8.8,1.8-13.5c0-27.7-22.4-50.1-50.1-50.1C79.8-2.4,57.4,20,57.4,47.6
		c0,4.7,0.7,9.2,1.8,13.5H155.7z"/>
</g>
<g transform="matrix(1.02109,0,0,1.02109,619.159,634.838)">
	<path class="st10" d="M270.7-16.4c0,6.5-5.7,29.6-31.1,29.6c-23.1,0-81.8-99.5-83.7-103.3c-6.1-0.6-16.7-8.5-19.8-19.2
		c-0.5-1.6,6.5-11.1,14.1-8.8c1.8,0.5-5.9-9-6.9-10.7c-2.4-3.8-1-8.9,0.2-8.9c1.2,0,16.4,20.7,17.6,20.8c1.1,0.1,10.1,4.2,10.5,5
		c0.5,0.8-0.1,13.3,1.7,15.6c1.7,2.3,61.2,65.7,61.2,65.7c0.5-6.1,6.6-22.8,7.6-24.5C243.2-56.7,270.7-35.6,270.7-16.4"/>
</g>
<g transform="matrix(1.02109,0,0,1.02109,435.005,732.846)">
	<path class="st11" d="M326.1-210.7c-1.3-1.7-2.1-7,2-7.1c13.9,0,21.1,4.3,21.1,6.4c0,2.1,0,13,1.1,15c0.4,0.6,6.3,7.1,14.2,15.8
		c3.6,4.1,9.6,10.4,9.6,10.4c16.2,17.6,35.1,37.8,36.8,39.7c0.6-3.7,4.7-17.1,6.7-21.3"/>
</g>
<g transform="matrix(-0.563687,-0.8514,-0.8514,0.563687,502.468,650.371)">
	<path class="st11" d="M-140-282.2c35.6,2.4,78.6,0.1,84.1,0"/>
</g>
<g transform="matrix(1.02109,0,0,1.02109,607.026,807.635)">
	<path class="st11" d="M274.3-176.4c-1.4,3.7-7.9,16.3-27.8,16.3c-3.7,0-8.4-2.7-13.6-7.3"/>
</g>
<g transform="matrix(1.02109,0,0,1.02109,639.924,530.18)">
	<path class="st12" d="M264.4-53.3c-1.5-8.3-7.7-25.5-7.7-40.5c0-22.6,13.9-35.4,40.2-35.4c18.5,0,25.8,12.1,28.6,18.1
		c2.3,5,0.9,10.5,3.6,15.7c10.4,20.7,19,18.6,34.2,44.2c3.7,6.2,5.8,27.9,4.6,34.8c-6.5,0.3-15.2,3.3-15.2,3.3
		c-3.5,3.7-5.1,8.6-4.9,12.4c-3-2.5-18.9-15.4-37.3-15.4c-4.9,0-28.4,4.3-34.6,8.9c-1.1-1.5-6.1-4.2-8-4.2c-3.5,0.4-6.3,0.7-9,1.7
		c-3.1-10.5,5.9-24.5,5.9-40.9C264.7-51.3,264.6-52.2,264.4-53.3"/>
</g>
<g transform="matrix(1.02109,0,0,1.02109,646.448,745.953)">
	<path class="st13" d="M262.5-221.9c-38,0-50.9,51.8-50.9,57c0,5.2,29.2,23.4,33.3,23.4c4.1,0,28.6-60.3,28.6-64.2
		C273.4-209.7,270-221.9,262.5-221.9"/>
</g>
<g transform="matrix(1.02109,0,0,1.02109,607.025,729.352)">
	<path class="st11" d="M274.3-202.5c-20.7,14.4-28.2,45.7-28.2,49.8c0,5.2,29.2,23.4,33.3,23.4s28.6-60.3,28.6-64.2
		c0-3.9-3.4-16.2-10.9-16.2"/>
</g>
<g transform="matrix(1.02109,0,0,1.02109,701.745,952.011)">
	<path class="st13" d="M245.8-428.3c92.7-6.1,79.7,191.8,72.6,199.6c-7.1,7.8-87.4,31.3-97,26.2
		C211.8-207.5,127.2-420.4,245.8-428.3"/>
</g>
<g transform="matrix(1.02109,0,0,1.02109,721.528,579.855)">
	<path class="st10" d="M239.9-105.3c0,0-1.5,9.2-1.6,12.1c-0.4,4.8,1.7,34.2,2.4,39.3c-2.9,3.2-23.8,6.2-26.2,4.4
		c0-4-2-24.9-2.8-27.8c-15.7-2-28-20.9-28-43.8c0-4.8,0.5-9.4,1.5-13.7c4.7-1.5,11.6-8.9,12.6-11.7l-1.1-2.7
		c4.4,14.3,31.3,27.5,41.2,28.6l-1.1,1.7c1.4-2.8,3.9-4.7,6.7-4.7c4.4,0,7.9,4.4,7.9,9.8c0,5.4-3.5,9.8-7.9,9.8
		c-2.1,0-4.1-1-5.5-2.7"/>
</g>
<g transform="matrix(1.02109,0,0,1.02109,651.469,510.148)">
	<path class="st11" d="M261-21.6c-7.5-8-12.4-20.8-12.4-35.3c0-4.8,0.5-9.4,1.5-13.7"/>
</g>
<g transform="matrix(1.02109,0,0,1.02109,703.994,595.144)">
	<path class="st11" d="M245.2-103.7c-4.9,4.8-10.9,7.6-17.2,7.6c-2.8,0-5.5-0.5-8-1.5"/>
</g>
<g transform="matrix(1.02109,0,0,1.02109,711.531,549.016)">
	<path class="st11" d="M242.9-92.6c1.4-2.8,3.9-4.7,6.7-4.7c4.4,0,7.9,4.4,7.9,9.8c0,5.4-3.5,9.8-7.9,9.8c-2.1,0-4.1-1-5.5-2.7"/>
</g>
<g transform="matrix(0.940742,0.397027,0.397027,-0.940742,682.774,510.543)">
	<path class="st11" d="M203.3,158c10.2-1.7,20.5-1.4,25.4,0"/>
</g>
<g transform="matrix(0.574363,0.844235,0.844235,-0.574363,661.366,488.05)">
	<path class="st11" d="M89.4,243.9c3.7-1.1,8.2-1,13,0"/>
</g>
<g transform="matrix(-0.750334,0.692549,0.692549,0.750334,643.75,514.18)">
	<path class="st11" d="M-257.1,120c2.6,1.3,12.7,2.1,17.2,0"/>
</g>
<g transform="matrix(1.02109,0,0,1.02109,736.871,612.409)">
	<path class="st11" d="M235.3-171.2c8.3,11.9,16.4,14.1,29,35.4c3.7,6.2,5.9,27.7,4.7,34.5"/>
</g>
<g transform="matrix(1.02109,0,0,1.02109,680.031,486.134)">
	<path class="st11" d="M252.4-90.2c0.4,0,0.8,0,1.2,0c18.5,0,25.8,12.1,28.6,18.1c1.3,2.8,1.5,5.8,1.8,8.7"/>
</g>
<g transform="matrix(1.02109,0,0,1.02109,625.758,452.201)">
	<path class="st11" d="M268.7,62.6c-3.1-10.5,5.9-24.5,5.9-40.9c0-6.5-8-26.3-8-43.3c0-15.4,6.5-26.2,18.9-31.6"/>
</g>
<g transform="matrix(-0.0381864,-1.02038,-1.02038,0.0381864,726.461,583.037)">
	<path class="st11" d="M74.6-233.3c7.7,0.2,14.9,0.2,17.1,0"/>
</g>
<g transform="matrix(1.02109,0,0,1.02109,699.359,610.931)">
	<path class="st11" d="M246.6-84.5c5.5-0.9,10.7-2.4,12.1-3.9c-0.3-1.8-0.7-6.7-1.1-12.5"/>
</g>
<g transform="matrix(0.102636,1.01592,1.01592,-0.102636,696.702,611.204)">
	<path class="st11" d="M-88.1,242.4c3,0.5,23.9,0.4,27.9,0"/>
</g>
<g transform="matrix(0.88222,-0.514113,-0.514113,-0.88222,639.695,655.395)">
	<path class="st11" d="M283.5-25c11.2,4,23.7,4.5,37.5,0"/>
</g>
<g transform="matrix(0.0786088,-1.01806,-1.01806,-0.0786088,650.847,727.204)">
	<path class="st11" d="M126.9-220.9c21.3,3.7,42.4,4.5,60.2,0"/>
</g>
<g transform="matrix(1.02109,0,0,1.02109,809.465,915.483)">
	<path class="st11" d="M213.4-229.3c-0.9,18-2.9,30.5-4.6,32.3c-7.1,7.8-87.4,31.3-97,26.2c-4-2.1-21.2-40.7-31.1-85.4"/>
</g>
<g transform="matrix(0.154218,1.00938,1.00938,-0.154218,861.659,739.612)">
	<path class="st11" d="M-145.2,173.4c27.8,5.1,60.2,3.6,87.3,0"/>
</g>
<g transform="matrix(0.911256,0.460693,0.460693,-0.911256,722.471,607.968)">
	<path class="st11" d="M167.1,190.6c10.1,3.1,20.2,2.8,30,0"/>
</g>
<g transform="matrix(1.02109,0,0,1.02109,670.492,527.71)">
	<path class="st14" d="M255.2-75.9c0,2.4-0.9,4.4-2.1,4.4c-1.2,0-2.1-2-2.1-4.4c0-2.4,0.9-4.4,2.1-4.4
		C254.3-80.2,255.2-78.3,255.2-75.9"/>
</g>
<g transform="matrix(-0.363293,0.954276,0.954276,0.363293,658.139,550.816)">
	<path class="st11" d="M-179.1,205.9c1.9,0.5,10,1.9,14.1,0"/>
</g>
<g transform="matrix(0.857312,-0.554654,-0.554654,-0.857312,665.964,571.813)">
	<path class="st11" d="M263.2-61.9c1-0.9,6.6-2.4,9.7,0"/>
</g>
<g transform="matrix(1.02109,0,0,1.02109,849.741,918.124)">
	<path class="st10" d="M201.3-318.8c0,0,21.6,62.1,21.6,69c0,7-64.6,53.7-64.6,53.7l-33,2.8l57.3-58.8l-21.5-53.5L201.3-318.8z"/>
</g>
<g transform="matrix(1.02109,0,0,1.02109,784.462,911.287)">
	<path class="st11" d="M221-303c1.2,3.1,21.5,53.5,21.5,53.5l-56.4,58.2"/>
</g>
<g transform="matrix(1.02109,0,0,1.02109,868.687,845.596)">
	<path class="st11" d="M195.6-199.3c2.7,9,4.7,15.7,4.7,16.5c0,2.8-10.4,11.3-10.4,11.3"/>
</g>
<g transform="matrix(0.309018,0.973208,0.973208,-0.309018,864.303,732.303)">
	<path class="st11" d="M-80,217.4c0,0,11.2,0,24.9,0"/>
</g>
<g transform="matrix(1.02109,0,0,1.02109,762.558,741.922)">
	<path class="st13" d="M227.6-218.3c38.1-10.8,69.1,55.7,65.6,64.8c-3.5,9.1-47.7,23.9-55.2,20.1
		C230.4-137.2,202.7-211.3,227.6-218.3"/>
</g>
<g transform="matrix(1.02109,0,0,1.02109,784.462,718.156)">
	<path class="st11" d="M221-113.9c-3.9,0.6-7,0.6-8.5-0.2c-2.3-1.2-6.6-9.1-10.6-19.6"/>
</g>
<g transform="matrix(1.02109,0,0,1.02109,851.576,739.563)">
	<path class="st11" d="M200.8-164.4c1.3,4.3,1.7,7.6,1.1,9.2c-1.8,4.8-15,11.2-28.1,15.6"/>
</g>
<g transform="matrix(1.02109,0,0,1.02109,742.458,614.214)">
	<path class="st11" d="M233.6-68.4c-1.6-14.2,0.3-26.2,9.6-28.9c21.1-6,39.9,11.7,52,30.2"/>
</g>
<g transform="matrix(1.02109,0,0,1.02109,598.567,1040.1)">
	<path class="st15" d="M276.9-336.9c38.3,0,178.8,70.7,178.8,75.2c0,4.4,0.8,31.7-4.1,31.7c-149.1,0-215.9-28.7-215.9-77.3
		C235.7-326.7,255.7-336.9,276.9-336.9"/>
</g>
<g transform="matrix(1.02109,0,0,1.02109,873.67,1047.51)">
	<path class="st10" d="M194.1-267.8c-3,0-4.7,27.5-2.9,30.6c5.1,2,25.4,5,28.5,5c3,0,20.7-3,20.7-20.3
		C240.4-264.1,222.6-267.8,194.1-267.8"/>
</g>
<g transform="matrix(1.02109,0,0,1.02109,660.576,1016.68)">
	<path class="st11" d="M258.2-306.1c55.6,20.3,132.7,60,132.7,63.3c0,4.4,0.8,31.7-4.1,31.7c-149.1,0-215.9-28.7-215.9-77.3
		c0-19.4,20-29.6,41.2-29.6c2.9,0,6.3,0.4,10.2,1.1"/>
</g>
<g transform="matrix(-0.315611,0.97109,0.97109,0.315611,870.784,998.527)">
	<path class="st11" d="M-272.6,114.3c0.3-1,3.8-0.8,8.3,0"/>
</g>
<g transform="matrix(1.02109,0,0,1.02109,863.936,1030.73)">
	<path class="st11" d="M197.1-247.5c-1.2,8.4-1.5,20.7-0.3,22.7c5.1,2,25.4,5,28.5,5c3,0,20.7-3,20.7-20.3c0-9.1-11-13.3-29.6-14.7"
		/>
</g>
<g transform="matrix(1.02109,0,0,1.02109,431.626,590.542)">
	<path class="st11" d="M327.1-95.2c-1.5-1.9-2.5-3.3-2.8-4c-1.1-2.6-6.9,2.8-1.4,10.9"/>
</g>
<g transform="matrix(-0.687885,-0.754612,-0.754612,0.687885,448.193,596.562)">
	<path class="st11" d="M-158.6-297.4c1.7,0.3,8.7,0.2,15.4,0"/>
</g>
<g transform="matrix(0.389832,0.943746,0.943746,-0.389832,438.777,621.246)">
	<path class="st11" d="M20.2,334c-0.2-6.4,13.6-2.6,19,0"/>
</g>
<g transform="matrix(0.525207,0.875661,0.875661,-0.525207,429.297,624.784)">
	<path class="st11" d="M73.1,328.7c2.2-5.6,15.9-1.8,18.6,0"/>
</g>
<g transform="matrix(1.02109,0,0,1.02109,894.968,1040.1)">
	<path class="st15" d="M187.7-364.3c20.3,0,31.9,20.3,31.9,32.3c0,68.8-197.9,102-202.6,102c-4.7,0-10.2-26.2-10.2-28.2
		C6.7-260.2,145.2-364.3,187.7-364.3"/>
</g>
<g transform="matrix(0.856701,-0.555598,-0.555598,-0.856701,708.699,976.239)">
	<path class="st11" d="M311.5,70.3c28.1,1.2,64.2,1.8,95.8,0"/>
</g>
<g transform="matrix(1.02109,0,0,1.02109,807.048,1016.12)">
	<path class="st11" d="M214.2-240c-53.7,19.8-112.6,29.5-115.1,29.5c-4.7,0-10.2-26.2-10.2-28.2c0-0.4,6.5-5.6,17-13.5"/>
</g>
<g transform="matrix(1.02109,0,0,1.02109,830.039,929.248)">
	<path class="st11" d="M207.2-246.6c16.4-8,30.6-13.2,40-13.2c20.3,0,31.9,20.3,31.9,32.3c0,16.8-11.8,31.4-29.6,44"/>
</g>
<g transform="matrix(1.02109,0,0,1.02109,616.279,1062.69)">
	<path class="st10" d="M271.6-278.9c-4.1,0-47,7.3-47,20.6c0,15.3,9.2,21.5,14.4,21.5c5.2,0,36.8-7,39.7-11.8
		C281.6-253.5,271.6-278.9,271.6-278.9"/>
</g>
<g transform="matrix(1.02109,0,0,1.02109,599.49,1002.55)">
	<path class="st11" d="M276.6-187.3c7.1-2.1,13.3-4.5,14.5-6.5c2.9-4.8-7.1-30.3-7.1-30.3c-4.1,0-47,7.3-47,20.6
		c0,15.3,9.2,21.5,14.4,21.5c1,0,2.9-0.2,5.3-0.7"/>
</g>
<g transform="matrix(1.02109,0,0,1.02109,993.161,275.303)">
	<path class="st11" d="M158.2,63.6c1.2-4.3,1.8-8.8,1.8-13.5c0-27.7-22.4-50.1-50.1-50.1S59.9,22.5,59.9,50.1
		c0,4.7,0.7,9.2,1.8,13.5H158.2z"/>
</g>
<g transform="matrix(-1.02109,0,0,1.02109,2158.17,828.964)">
	<rect x="869.8" y="-22.3" class="st16" width="66.5" height="-18.7"/>
</g>
<g transform="matrix(1.02109,0,0,1.02109,1110.67,236.578)">
	<path class="st16" d="M122.8,539.2V11.7h-128V38"/>
</g>
<g transform="matrix(-1.02109,0,0,1.02109,557.863,857.945)">
	<rect x="-189.5" y="-40.3" class="st1" width="136.4" height="-19.7"/>
</g>
<g transform="matrix(-1.02109,0,0,1.02109,619.223,806.278)">
	<rect x="-150.2" y="-8.9" class="st2" width="136.4" height="-16.3"/>
</g>
<g transform="matrix(-1.02109,0,0,1.02109,573.073,758.142)">
	<rect x="-179.8" y="21.9" class="st1" width="136.4" height="-16.3"/>
</g>
<g transform="matrix(1.02109,0,0,1.02109,331.204,782.497)">
	<path class="st8" d="M357.3-99.4c-3.3-0.3-7.9-13.1-3.7-19.5c8.7-13.5,31.4-17.9,39.8-37C393.4-149.4,400.1-96,357.3-99.4"/>
</g>
<g transform="matrix(0.394883,-0.941643,-0.941643,-0.394883,370.179,918.579)">
	<path class="st17" d="M289.2-209.6c21.7,9.1,63,7.3,74.4,0"/>
</g>
<g transform="matrix(-0.156525,-1.00902,-1.00902,0.156525,343.781,836.458)">
	<path class="st17" d="M106.4-370.4c1.8,0.5,7.3,0.9,10.2,0"/>
</g>
<g transform="matrix(1.01611,-0.100719,-0.100719,-1.01611,346.944,835.358)">
	<path class="st17" d="M367.5,133.4c1.3-0.5,7.6-0.7,11.3,0"/>
</g>
<g transform="matrix(-0.814606,-0.615664,-0.615664,0.814606,298.125,878.25)">
	<path class="st17" d="M-203-358.4c1.4-1.7,11.4-9.2,21,0"/>
</g>
<g transform="matrix(-0.712429,-0.731485,-0.731485,0.712429,292.537,879.648)">
	<path class="st17" d="M-131.3-389.4c1.1-0.4,3.9-0.5,4.8,0"/>
</g>
<g transform="matrix(0.205663,-1.00016,-1.00016,-0.205663,341.178,938.184)">
	<path class="st3" d="M237.7-308.3h34.8l-9,43.7l-32-13.7L237.7-308.3z"/>
</g>
<g transform="matrix(1.02109,0,0,1.02109,113.156,781.647)">
	<path class="st7" d="M422.9-361.2l82.7,209L638-299.1L422.9-361.2z"/>
</g>
<g transform="matrix(1.02109,0,0,1.02109,306.567,578.236)">
	<path class="st8" d="M364.7-176.3v61.9h27.7l13.5,23.3l13.5-23.3h27.7v-61.9H364.7z"/>
</g>
<g transform="matrix(1.02109,0,0,1.02109,349.263,496.958)">
	<path class="st3" d="M351.9-66.6c0,2.4-1.9,4.3-4.3,4.3c-2.4,0-4.3-1.9-4.3-4.3s1.9-4.3,4.3-4.3C350-70.9,351.9-69,351.9-66.6"/>
</g>
<g transform="matrix(1.02109,0,0,1.02109,373.629,496.958)">
	<path class="st3" d="M344.6-66.6c0,2.4-1.9,4.3-4.3,4.3c-2.4,0-4.3-1.9-4.3-4.3s1.9-4.3,4.3-4.3C342.6-70.9,344.6-69,344.6-66.6"/>
</g>
<g transform="matrix(1.02109,0,0,1.02109,397.995,496.958)">
	<path class="st3" d="M337.2-66.6c0,2.4-1.9,4.3-4.3,4.3c-2.4,0-4.3-1.9-4.3-4.3s1.9-4.3,4.3-4.3C335.3-70.9,337.2-69,337.2-66.6"/>
</g>
</svg>
