<?xml version="1.0" encoding="utf-8"?>
<!-- Generator: Adobe Illustrator 22.1.0, SVG Export Plug-In . SVG Version: 6.00 Build 0)  -->
<svg version="1.1" id="Layer_1" xmlns="http://www.w3.org/2000/svg" xmlns:xlink="http://www.w3.org/1999/xlink" x="0px" y="0px"
	 viewBox="0 0 1280 1024" style="enable-background:new 0 0 1280 1024;" xml:space="preserve">
<style type="text/css">
	.st0{fill:#F2E6D4;}
	.st1{fill:#FFD1BD;}
	.st2{fill:#FF9088;}
	.st3{fill:#FB5D64;}
	.st4{fill:#FFFFFF;}
	.st5{fill:none;stroke:#FB5822;stroke-width:3;stroke-linecap:round;stroke-linejoin:round;stroke-miterlimit:10;}
	.st6{fill:none;stroke:#525587;stroke-width:3.69;stroke-linecap:round;stroke-linejoin:round;stroke-miterlimit:10;}
	.st7{fill:#EECB55;}
	.st8{fill:#DB7F29;}
	.st9{fill:#403B44;}
	.st10{fill:#DC735B;}
	.st11{fill:#525587;}
	.st12{fill:none;stroke:#525587;stroke-width:3.14;stroke-linecap:round;stroke-linejoin:round;stroke-miterlimit:10;}
	.st13{fill:#FB5822;}
	.st14{fill:none;stroke:#FF9088;stroke-width:3.69;stroke-linecap:round;stroke-linejoin:round;stroke-miterlimit:10;}
</style>
<g id="Layer_3">
	<g transform="matrix(1.62867,0,0,1.62867,1864.96,1496.17)">
		<path class="st0" d="M-468.6-697c48.7,42.6,101.9,86.7,107.1,135.9c5.3,49.3-37.6,103.7-86.3,134.2s-103.1,37.1-168.5,47.9
			c-65.3,10.9-141.5,26.1-185.6-4.4c-44.1-30.5-56.2-106.7-28.7-155.4s94.7-69.7,138.9-112.4c44.1-42.6,65.2-106.7,97.7-118.1
			C-561.4-780.9-517.3-739.6-468.6-697"/>
	</g>
	<g transform="matrix(-1.62867,0,0,1.62867,3323.02,-1207.9)">
		<polygon class="st1" points="1295.8,985.4 1443.6,985.4 1443.6,985.4 		"/>
	</g>
	<g transform="matrix(-1.62867,0,0,1.62867,3527.2,-1179.09)">
		<polygon class="st2" points="1445.9,954.4 1489.2,954.4 1489.2,954.4 		"/>
	</g>
	<g transform="matrix(1.62867,0,0,1.62867,1812.26,339.583)">
		<path class="st3" d="M-450.5-38.6c0,9.9-8,17.8-17.8,17.8c-9.9,0-17.8-8-17.8-17.8c0-9.9,8-17.8,17.8-17.8
			C-458.4-56.4-450.5-48.4-450.5-38.6"/>
	</g>
	<g transform="matrix(1.62867,0,0,1.62867,2123.89,1045.95)">
		<path class="st4" d="M-557.8-281.8c0,24.1-19.5,43.7-43.7,43.7c-24.1,0-43.7-19.5-43.7-43.7c0-24.1,19.5-43.7,43.7-43.7
			C-577.3-325.4-557.8-305.9-557.8-281.8"/>
	</g>
	<g transform="matrix(-1.62867,0,0,1.62867,3737.98,-181.796)">
		<polygon class="st5" points="1521.8,484.5 1615.4,484.5 1615.4,484.5 		"/>
	</g>
	<g transform="matrix(1.62867,0,0,1.62867,1308.5,1921.76)">
		<path class="st6" d="M-277-583.3h232.1"/>
	</g>
	<g transform="matrix(1.62867,0,0,1.62867,471.801,1921.76)">
		<path class="st6" d="M11.1-583.3h171.1"/>
	</g>
	<g transform="matrix(1.62867,0,0,1.62867,1461.65,698.816)">
		<path class="st7" d="M-329.7-148l-1,4.6l-6.4,2c0,0-3.2-9.9-3.6-12.1c-3.1,2.3-20.8,7.3-23.8,7.7c-0.4-2.4-0.4-23,16.7-23
			c15.1,0,21.9,15.1,22.3,16.9C-326.3-151.4-329.7-150.1-329.7-148"/>
	</g>
	<g transform="matrix(1.62867,0,0,1.62867,1477.38,1196.67)">
		<path class="st8" d="M-335.2-414.1c-3.8,0-31.7,28.1-32.8,34c-0.5,2.6-9,46.4-9,46.4l46.5-13l2.7-59.1l-6.6-8.3H-335.2z"/>
	</g>
	<g transform="matrix(1.62867,0,0,1.62867,1264.57,855.132)">
		<path class="st4" d="M-261.9-122.8c-0.1-3.2,26.6-87.4,29.6-90.3c3.1-3,6.3-3,7.6-3c1.3,0.1,7.7,3.1,9,6.2
			c-2.3,5.4-7.8,8.5-7.8,8.5l-10.8,66.5L-261.9-122.8z"/>
	</g>
	<g transform="matrix(1.62867,0,0,1.62867,1385,1629.87)">
		<path class="st9" d="M-303.4-548l38.5,47.7l-18.7,18.8l-56.6-49.5l13.4-18.4L-303.4-548z"/>
	</g>
	<g transform="matrix(1.62867,0,0,1.62867,1347.44,1244.71)">
		<path class="st9" d="M-290.4-226.1c-5.2-4.7-66.1-80.6-66.1-90c0-20.9,23.8-28.4,30.2-30c8.9-0.8,48.6-4.1,54.8-3.9
			c4.5,4.9,56.7,16.1,64.2,15.1c0,3.8-6,30.3-48.7,30.3c-4.5,0-38.1-1.3-38.7-1.3c0,7.9,21.6,59.2,23.6,62.6"/>
	</g>
	<g transform="matrix(1.62867,0,0,1.62867,1552.21,1318.66)">
		<path class="st8" d="M-360.9-502.7c34.5,0,42,62.3,42,80c0,22.6-9.2,40.6-13.5,42.3c-12.3,4.7-57.7-10.8-60.5-18.2
			C-407-434.4-383.9-502.7-360.9-502.7"/>
	</g>
	<g transform="matrix(1.62867,0,0,1.62867,1442.84,729.729)">
		<path class="st6" d="M-323.3-183.8c2.7,2.4,5.1,5.5,7,9.1c0.3,0.6,0.6,1.2,0.8,1.8"/>
	</g>
	<g transform="matrix(1.62867,0,0,1.62867,1336.87,665.077)">
		<path class="st6" d="M-286.8-116.7c-6.4-12.5-3.7-26.8,6.1-31.8c3.2-1.7,6.8-2.1,10.4-1.6"/>
	</g>
	<g transform="matrix(1.62867,0,0,1.62867,1463.35,853.67)">
		<path class="st6" d="M-330.3-222.5c-1.3,1.5-2.9,2.7-4.7,3.6c-6.7,3.4-15,1.7-21.6-3.7"/>
	</g>
	<g transform="matrix(1.62867,0,0,1.62867,1453.51,759.531)">
		<path class="st6" d="M-326.9-187.5c0.9-2.2,3-3.7,5.5-3.7c3.3,0,5.9,2.6,5.9,5.9c0,3.3-2.6,5.9-5.9,5.9c-0.9,0-1.8-0.2-2.6-0.6"/>
	</g>
	<g transform="matrix(-0.710328,-1.4656,-1.4656,0.710328,1478.09,846.681)">
		<path class="st6" d="M325.2,216.9c3.2-0.6,13.1-1.9,18,0"/>
	</g>
	<g transform="matrix(1.62867,0,0,1.62867,1483.45,884.712)">
		<path class="st6" d="M-337.2-254.8c1.2,4,12,18.5,14.7,20.6c-0.2,1.8-3.6,5.1-7.5,8"/>
	</g>
	<g transform="matrix(1.62867,0,0,1.62867,1432.16,743.407)">
		<path class="st6" d="M-319.6-171.5l4.8-1.5l1-4.6"/>
	</g>
	<g transform="matrix(1.62867,0,0,1.62867,1384.21,749.015)">
		<path class="st6" d="M-303.1-183.4c3.6-1.2,6.6-2.4,7.8-3.2c0.3,1.6,2.1,7.3,3,10.2"/>
	</g>
	<g transform="matrix(1.5792,-0.39834,-0.39834,-1.5792,1326.06,755.147)">
		<path class="st6" d="M-230.2,246.4c1.2-0.1,4.6-0.1,8.6,0"/>
	</g>
	<g transform="matrix(1.62867,0,0,1.62867,1455.1,1075.92)">
		<path class="st6" d="M-327.5-246c-4.8-2.4-8.2-4.8-8.9-6.6c-4.3-11.1-5.1-25.2-3.5-39.5"/>
	</g>
	<g transform="matrix(1.62867,0,0,1.62867,1678.91,1297.91)">
		<path class="st6" d="M-404.5-448.6c3.6,14.4,4.8,28.5,4.8,35.6c0,22.6-9.2,40.6-13.5,42.3c-5.8,2.2-18.8,0-31.3-3.8"/>
	</g>
	<g transform="matrix(1.62867,0,0,1.62867,1523.8,873.913)">
		<path class="st6" d="M-351.1-231.8c1.5-0.6,3.1-0.9,4.6-0.9c9.1,0,16.3,4.3,22,11"/>
	</g>
	<g transform="matrix(0.693014,-1.47387,-1.47387,-0.693014,1477.32,960.007)">
		<path class="st6" d="M79.4,420.4c7.8,0.8,15.2,0.8,21.6,0"/>
	</g>
	<g transform="matrix(1.62867,0,0,1.62867,1354.97,843.73)">
		<path class="st6" d="M-293-204.6c1-2.6,1.8-4.2,2.1-4.6c3.1-3,6.3-3,7.6-3c1.3,0.1,7.7,3.1,9,6.2"/>
	</g>
	<g transform="matrix(0.506197,-1.54801,-1.54801,-0.506197,1379.76,1060.47)">
		<path class="st6" d="M162.4,398.3c15.2,0.2,33.8,0.2,47.6,0"/>
	</g>
	<g transform="matrix(0.415637,-1.57474,-1.57474,-0.415637,1272.91,1179.76)">
		<path class="st6" d="M245.9,344.2c0.6,0.2,4.1,0.2,9.5,0"/>
	</g>
	<g transform="matrix(1.35752,0.899836,0.899836,-1.35752,1400.99,859.538)">
		<path class="st6" d="M-378.3,8.7c1.2,0.6,4.9,0.7,7.4,0"/>
	</g>
	<g transform="matrix(1.35749,0.899881,0.899881,-1.35749,1387.34,876.819)">
		<path class="st6" d="M-377.6,16.2c1.2,0.6,4.9,0.7,7.4,0"/>
	</g>
	<g transform="matrix(0.26657,-1.6067,-1.6067,-0.26657,1488.72,1064.27)">
		<path class="st6" d="M201.7,413.5c2.9,0.4,54.3,1.5,64.6,0"/>
	</g>
	<g transform="matrix(1.24509,-1.0499,-1.0499,-1.24509,1434.11,941.945)">
		<path class="st6" d="M-88.4,400.5c6.5,0.8,14,1.2,18.6,0"/>
	</g>
	<g transform="matrix(0.853735,1.38697,1.38697,-0.853735,988.255,1021.45)">
		<path class="st6" d="M-333.1-21.6h53.9"/>
	</g>
	<g transform="matrix(1.62867,0,0,1.62867,1644.37,1629.93)">
		<path class="st6" d="M-392.7-574.4c0,3.8-6,30.3-48.7,30.3c-4.5,0-38.1-1.3-38.7-1.3c0,7.9,21.6,59.2,23.6,62.6"/>
	</g>
	<g transform="matrix(1.62867,0,0,1.62867,1202.98,1693.64)">
		<path class="st6" d="M-240.7-624.8c-6.3,2.3-30.2,9.1-30.2,30c0,9.4,60.9,85.3,66.1,90"/>
	</g>
	<g transform="matrix(1.37313,-0.875829,-0.875829,-1.37313,1350.63,1728.91)">
		<path class="st6" d="M29.6,601.5h33.1"/>
	</g>
	<g transform="matrix(1.39312,-0.843669,-0.843669,-1.39312,1360.52,1747.5)">
		<path class="st6" d="M16.4,609.1h33.7"/>
	</g>
	<g transform="matrix(1.20855,1.09177,1.09177,-1.20855,1407.43,1549.06)">
		<path class="st6" d="M-539,121l24.1,0"/>
	</g>
	<g transform="matrix(1.02146,1.26853,1.26853,-1.02146,1483.93,1415.56)">
		<path class="st6" d="M-538.1-22.8l42.5,0"/>
	</g>
	<g transform="matrix(-1.16799,1.13505,1.13505,1.16799,1482.58,1648.36)">
		<path class="st6" d="M-127.4-597.1h32.8"/>
	</g>
	<g transform="matrix(-1.168,1.13504,1.13504,1.168,1493.6,1664.73)">
		<path class="st6" d="M-128.6-603.8h32.8"/>
	</g>
	<g transform="matrix(0,1.62867,1.62867,0,881.225,1884.04)">
		<path class="st6" d="M-580.5-140.1h20.3"/>
	</g>
	<g transform="matrix(0,1.62867,1.62867,0,1072.33,1477.43)">
		<path class="st6" d="M-492.1-257.4h123.4"/>
	</g>
	<g transform="matrix(0,1.62867,1.62867,0,1528.49,1585.18)">
		<path class="st6" d="M-558.2-443.5h181.5"/>
	</g>
	<g transform="matrix(1.62867,0,0,1.62867,1597.11,1039.43)">
		<path class="st8" d="M-376.4-316.2c16.4,5.7,8.1,41,3.4,42.1c-4.6,1.2-32.5-9.9-33.4-12.8C-407.2-289.8-395.6-322.9-376.4-316.2"
			/>
	</g>
	<g transform="matrix(1.62867,0,0,1.62867,1519.66,1024.48)">
		<path class="st6" d="M-349.7-304.9c4.8-4.8,10.8-7.6,17.8-5.2c16.4,5.7,8.1,41,3.4,42.1c-4.6,1.2-32.5-9.9-33.4-12.8
			c-0.2-0.7,0.3-3.1,1.4-6.2"/>
	</g>
	<g transform="matrix(1.62867,0,0,1.62867,1493.1,1243.83)">
		<path class="st4" d="M-340.6-410.6c-1.3,2-8.8,25.9-8.8,25.9s-52.4,22.6-55,23.7c-0.9-1.3-4.1-3.7-10.4-3.7
			c-11.6,0-13.7,7.7-13.7,9.4s17.7,5.3,22.4,5.2c4.7-0.1,71.1-10.2,73.5-11.4c2.4-1.2,18.3-38.7,18.3-38.7
			C-318.5-400.4-338.3-406.5-340.6-410.6"/>
	</g>
	<g transform="matrix(1.62867,0,0,1.62867,1370.72,1026.13)">
		<path class="st6" d="M-298.4-224.4c-16.8,2.6-33.2,4.9-35.4,5c-4.7,0.1-22.4-3.6-22.4-5.2s2-9.4,13.7-9.4c6.4,0,9.5,2.4,10.4,3.7
			c2.6-1.2,55-23.7,55-23.7s7.4-24,8.8-25.9"/>
	</g>
	<g transform="matrix(1.62867,0,0,1.62867,1579.43,1199.89)">
		<path class="st6" d="M-370.3-376.2c0,0-15.9,37.5-18.3,38.7c-0.7,0.3-6.5,1.4-14.7,2.7"/>
	</g>
	<g transform="matrix(1.62867,0,0,1.62867,363.508,830.883)">
		<rect x="330.5" y="-52.2" class="st10" width="101.3" height="9.4"/>
	</g>
	<g transform="matrix(1.62867,0,0,1.62867,1633.47,1396.3)">
		<path class="st6" d="M-388.9-393h-63.4v-9.4H-351v9.4h-17.8"/>
	</g>
	<g transform="matrix(-1.62867,0,0,1.62867,1691.46,468.676)">
		<polygon class="st10" points="510.9,130 665.1,130 665.1,130 		"/>
	</g>
	<g transform="matrix(1.62867,0,0,1.62867,890.86,1248.61)">
		<path class="st6" d="M-133.2-359.3h111.3v7.7h-154.2v-7.7h23.7"/>
	</g>
	<g transform="matrix(-1.62867,0,0,1.62867,1848.61,415.839)">
		<polygon class="st3" points="636.1,154.7 690.4,154.7 690.4,154.7 		"/>
	</g>
	<g transform="matrix(-1.62867,0,0,1.62867,1829.07,396.295)">
		<polygon class="st6" points="626.7,164 681,164 681,164 		"/>
	</g>
	<g transform="matrix(1.62867,0,0,1.62867,1355.67,1856.91)">
		<path class="st4" d="M-293.3-595l17.8,19.5l-9.7,27l29.9-23.2l-17.3-35.7"/>
	</g>
	<g transform="matrix(-0.710521,-1.46551,-1.46551,0.710521,1467.19,1678.29)">
		<path class="st6" d="M577.1,91.2h23.8"/>
	</g>
	<g transform="matrix(1.62867,0,0,1.62867,1344.27,1891.79)">
		<path class="st6" d="M-289.3-619.5l17.8,19.5l-9.7,27l29.9-23.2l-3-6.2"/>
	</g>
	<g transform="matrix(1.62867,0,0,1.62867,1536.56,1774.13)">
		<path class="st4" d="M-355.5-583.2l9.9,16.8l6.8,3.6l-13,30.3l-3-19l-17.2-15.7"/>
	</g>
	<g transform="matrix(-1.20277,-1.09813,-1.09813,1.20277,1471.46,1630.48)">
		<path class="st6" d="M566.6-130.1h5.9"/>
	</g>
	<g transform="matrix(1.62867,0,0,1.62867,1525.16,1762.73)">
		<path class="st6" d="M-351.6-579.2l9.9,16.8l6.8,3.6l-13,30.3l-3-19l-3.7-3.4"/>
	</g>
	<g transform="matrix(0,1.62867,1.62867,0,1738.99,1674.81)">
		<path class="st6" d="M-564-490.9h131.4"/>
	</g>
	<g transform="matrix(0,1.62867,1.62867,0,1827.71,1767.79)">
		<path class="st6" d="M-571-496.4h81.3"/>
	</g>
	<g transform="matrix(0,1.62867,1.62867,0,1728.37,1482.48)">
		<path class="st6" d="M-445.9-435.4h27.7"/>
	</g>
	<g transform="matrix(1.62867,0,0,1.62867,1385.58,758.156)">
		<path class="st11" d="M-303.6-182.1c0.3,1,1,1.8,1.6,1.6s0.8-1.1,0.5-2.2c-0.3-1-1-1.8-1.6-1.6
			C-303.6-184.1-303.8-183.2-303.6-182.1"/>
	</g>
	<g transform="matrix(-0.496092,1.55127,1.55127,0.496092,1361.43,806.233)">
		<path class="st12" d="M-100.6-342.5c0.4,0,0.8,0,1.2,0"/>
	</g>
	<g transform="matrix(0.303656,1.60011,1.60011,-0.303656,1366.77,785.216)">
		<path class="st12" d="M-245.7-258.2c0.8,0.2,2.6,0.3,4.3,0"/>
	</g>
	<g transform="matrix(-0.790739,1.42383,1.42383,0.790739,1421.11,817.788)">
		<path class="st12" d="M-28.2-377.2c1.1,0.8,3.5,1,5.4,0"/>
	</g>
	<g transform="matrix(-1.62867,0,0,1.62867,1266.96,-427.49)">
		<polygon class="st1" points="303.7,579.9 465.4,579.9 465.4,579.9 		"/>
	</g>
	<g transform="matrix(1.62867,0,0,1.62867,1063.52,795.054)">
		<path class="st13" d="M-192.7-195.4c0,7.9-6.4,14.2-14.2,14.2c-7.9,0-14.2-6.4-14.2-14.2c0-7.9,6.4-14.2,14.2-14.2
			C-199-209.6-192.7-203.3-192.7-195.4"/>
	</g>
	<g transform="matrix(-1.62867,0,0,1.62867,612.832,764.417)">
		<path class="st14" d="M-42.9-184.9h80.4"/>
	</g>
	<g transform="matrix(-1.62867,0,0,1.62867,752.989,825.688)">
		<path class="st14" d="M43.1-205.9h42.6"/>
	</g>
	<g transform="matrix(-1.62867,0,0,1.62867,1920.28,-1314.61)">
		<polygon class="st5" points="649.5,1041.5 745.6,1041.5 745.6,1041.5 		"/>
	</g>
	<g transform="matrix(1.62867,0,0,1.62867,1102.22,534.036)">
		<path class="st5" d="M-206-171.8l28.2,66.2l59.1-41.1L-206-171.8z"/>
	</g>
	<g transform="matrix(-1.62867,0,0,1.62867,1013.69,-1226.43)">
		<polygon class="st2" points="235.5,949.9 290.8,949.9 290.8,949.9 		"/>
	</g>
	<g transform="matrix(-1.62867,0,0,1.62867,822.708,-1014.52)">
		<polygon class="st2" points="144,848.3 199.3,848.3 199.3,848.3 		"/>
	</g>
</g>
</svg>
