<?xml version="1.0" encoding="utf-8"?>
<!-- Generator: Adobe Illustrator 22.1.0, SVG Export Plug-In . SVG Version: 6.00 Build 0)  -->
<svg version="1.1" id="Layer_1" xmlns:vectornator="http://vectornator.io"
	 xmlns="http://www.w3.org/2000/svg" xmlns:xlink="http://www.w3.org/1999/xlink" x="0px" y="0px" viewBox="0 0 6250 4429"
	 style="enable-background:new 0 0 6250 4429;" xml:space="preserve">
<style type="text/css">
	.st0{fill:#F2E6D4;}
	.st1{fill:none;stroke:#FB5822;stroke-width:10;stroke-linecap:round;stroke-linejoin:round;}
	.st2{fill:#DC735B;}
	.st3{opacity:0.6672;fill:#FFD1BD;enable-background:new    ;}
	.st4{fill:#FFFFFF;}
	.st5{fill:#FF9088;}
	.st6{fill:#46DBC9;}
	.st7{fill:none;stroke:#525587;stroke-width:25;stroke-linecap:round;stroke-linejoin:round;}
	.st8{fill:#EECB55;}
	.st9{fill:#525587;}
	.st10{fill:#3C3744;}
	.st11{fill:#E49D75;}
</style>
<g transform="translate(300,300)">
	<path class="st0" d="M5014.4,1156.6c350.8,406.1,621.8,835.7,648.2,1290.8c25.4,455-194.8,936.4-545.6,1258.2
		c-349.9,321.7-831.2,484.1-1243.6,416c-411.6-68.9-756-368-1192.9-689.8c-436-321.7-965.3-666.3-949.1-993.5
		c15.4-328.1,576.5-639.9,1013.5-1046.9c436.9-406.1,748.7-906.5,1119.4-965.3C4234.8,367.1,4664.4,750.5,5014.4,1156.6z"/>
</g>
<path class="st1" d="M2413,2166.1l248.3-268.3l248.3-268.3l108.2,349.2l108.2,349.2l-356.5-80.8L2413,2166.1z"/>
<path class="st1" d="M5638.6,1592.8l-138.9,506l456.8-88.5L5638.6,1592.8z"/>
<path class="st2" d="M2755,1634.2h1163v1216.8H2755V1634.2z"/>
<path class="st3" d="M3179.3,1494.9h2262.8v1630.7H3179.3V1494.9z"/>
<path class="st2" d="M4595.9,1921.9c0-160.5,130.2-290.6,290.6-290.6s290.6,130.2,290.6,290.6s-130.2,290.6-290.6,290.6
	S4595.9,2082.5,4595.9,1921.9z"/>
<path class="st1" d="M4085.8,3356.9c0-163.9,132.9-296.7,296.7-296.7s296.7,132.9,296.7,296.7c0,163.9-132.9,296.7-296.7,296.7
	S4085.8,3520.7,4085.8,3356.9z"/>
<path class="st4" d="M5001.1,1363.9v225h1.4V1829l-167.8-179.4h-482.5V1364h648.8V1363.9z"/>
<path class="st4" d="M3532.5,1748.4v225h-1.4v240.1l167.8-179.4h482.5v-285.7h-648.8V1748.4z"/>
<path class="st4" d="M5311.6,2321.6c0,160.9,69.9,190.1,69.9,219.2c0,29.2-31.8,189.2-40.7,210.2c23.6,33.1,190.1,50.2,221.8,41.6
	c2.6-31.3,42.5-235.2,51.5-248.8c9-13.8,109.8-94.4,109.8-161.4c0-149.8-9.9-348.8-109.3-348.8
	C5493.5,2033.8,5311.6,2092.6,5311.6,2321.6z"/>
<path class="st5" d="M5813.7,2800.3c-77.8,2-246,32.1-246,32.1c-1,82.1,21.5,953,24.8,1084h480.3l170.1-988.1
	c0-70.7-57.3-128-128-128c0,0-206.7,3-287,0C5823.7,2800.2,5818.9,2800.2,5813.7,2800.3z"/>
<path class="st4" d="M3289,3540.1c27.4-15.1,292.1-211,306.6-229.3c14.4-18.3,66.4-123,70.8-129.8c4.3-6.8,32.2-19.6,35.7-16.7
	c21.3,18.1-12.9,79.8-16.9,89.2c19.8-18.1,145.4-116.3,160.8-111.5c110.6,34.7,69.2,182.4-0.3,218.4
	c-19.1,9.9-123.2,49.6-133.2,58.3c-10,8.7-448.1,373.5-458,380.5C3249,3774,3261.5,3555.2,3289,3540.1z"/>
<path class="st4" d="M4875.2,3028.3c-18.9,28-66.5,97.5-85.4,124.7c-202.9-266.9-412.9-421.4-468-684.9
	c-53.4-33.9-50.3,87.2-10.2,178.1c-62.6,40.1-121.9,80.2-103.7,109.9c69.8,113.6,90.7,77.8,116.8,80.2s234.8,430.2,295,497.5
	c44.3,49.6,78.8,107.6,215.8,166.6c14.7-125.4,107.1-422.2,125.9-444.7C4944.3,3043.5,4894,3000.5,4875.2,3028.3z"/>
<path class="st6" d="M4942.4,3085.8c-62.9-47.9-105.3-85.6-106.4-103.4c-2.7-41.8,248.3-398.7,419.1-285.6
	C5327.7,2749.6,5066.7,3178.5,4942.4,3085.8z"/>
<path class="st7" d="M5080.4,2680.3c55.1-27.3,111.5-34.1,161.1-1.2"/>
<path class="st7" d="M4928.9,3068c-63.7-46.6-105.3-85.6-106.4-103.4c-1.2-18.1,45.1-95,111.8-167.5"/>
<path class="st6" d="M5414.3,2668.7c-502.3,4.6-602.4,867.1-625.7,1247.6h950.8c120-373.3,208.7-1169.7-246.2-1241.7
	C5465.8,2670.5,5439.5,2668.5,5414.3,2668.7z"/>
<path class="st5" d="M2103.1,2775c-70.7,0-128,57.3-128,128c0,0,92.1,745.5,125.6,1017.3h692c-0.1-43.9-1.4-968.5-8.5-1145.2
	C2613.9,2775,2103.1,2775,2103.1,2775z"/>
<path class="st6" d="M2959.5,2744.4c-460.5,0-551.5,803.1-538.1,1175.8h844C3340.5,3551.1,3353,2744.4,2959.5,2744.4z"/>
<path class="st7" d="M3274.5,3329.3c11.4,217.7-11.7,444.4-44.3,589.3"/>
<path class="st7" d="M3046.3,2744.3c82,43.7,137.8,134.7,174,249.8"/>
<path class="st7" d="M2678.8,2821.7c36.4-36,76.9-64.5,122.1-83.7"/>
<path class="st7" d="M3280.1,3517.2c30.9-16.3,275.8-197.3,298.6-221.3c22.8-24.1,60.6-122.5,77.2-137
	c16.6-14.5,27.5-22.5,37.4-11.7s-7.5,65.3-28.8,94c40.4-41.9,135.5-108.5,169.1-120.2"/>
<path class="st7" d="M3434.3,3622.8c-86.3,74.3-164.3,142.1-178,154.3"/>
<path class="st7" d="M3834.8,3335.9c-37.7,19.2-112.2,47.2-146.6,71.8c-9.9,7-46.7,37.8-95,78.9"/>
<path class="st7" d="M3717.7,3248.8c11.7-9.8,48.1-35.8,84.4-59.2c33.7-21.8,67.2-41.4,80.8-43.8"/>
<path class="st7" d="M3746.8,3282.8c11.7-9.8,48.1-35.8,84.4-59.2c33.7-21.8,67.2-41.4,80.8-43.8"/>
<path class="st7" d="M3760.9,3328.8c10.4-8.8,42.7-32.2,74.9-53.4c29.9-19.6,59.7-37.4,71.7-39.6"/>
<path class="st4" d="M5614.1,2541.3c-9.1,26.1-50.4,219.6-53.4,250c-38.8,14-198.2-9.2-218.3-39.7c19.6-57.5,40.4-171.7,38.7-219.6"
	/>
<path class="st7" d="M5330.5,2734.3c19.6-57.5,40.4-171.7,38.7-219.6"/>
<path class="st7" d="M5602.2,2524c-9.1,26.1-50.4,219.6-53.4,250c-18.9,6.7-66.1,4.8-112.1-2.5"/>
<path class="st7" d="M5316,2204.9c12.4-36.7,30.6-72.7,49.3-99.9"/>
<path class="st7" d="M5516.6,2561.5c-21,4.2-42.4,4.3-63.3-0.1c-98.2-21-160.7-130.5-155.2-258.1"/>
<path class="st7" d="M5569.4,2678.6c351.4,169.1,261.1,906.1,146.7,1239.6"/>
<path class="st7" d="M4854.3,3323.7c77.1-321.5,221.8-634.3,494.3-676.2"/>
<path class="st7" d="M4772,3918.6c4.2-76.6,12.1-177,26.7-287.6"/>
<path class="st7" d="M5673.1,3591.6c6.4,93.7,13.2,180.2,18.5,206.1c-28.1,34.1-93.2,120.6-93.2,120.6"/>
<path class="st7" d="M5655.4,3305.5c0.8,11.7,3.1,53,6.4,107"/>
<path class="st7" d="M4857.6,3011.7c-9.4,13.8-83.8,124.2-83.8,124.2s-332.6-393.5-355.1-424.4c-67.4-92.1-99.6-204.6-103.3-229.3
	c-3.5-23.3-14.7-50.9-34.4-38c-30.9,23.3-10.7,142.2,13,182.8"/>
<path class="st7" d="M4255.6,2640.7c0.8,20.5,19.6,83.6,50.1,112.2"/>
<path class="st7" d="M4219.4,2677.1c2.8,20.4,27.9,81.2,60.9,106.6"/>
<path class="st7" d="M4183.7,2714.4c4,20.2,32.6,79.3,67.2,102.7"/>
<path class="st7" d="M4521.5,3195.1c-68.9-122.2-127.3-258.6-198.9-358.3"/>
<path class="st7" d="M4821.3,3481.4c-63.7-15.3-117.3-50.1-164.1-96.9"/>
<path class="st7" d="M5353.2,2229.7c5.1-24.1,23.3-40.5,40.6-37c17.3,3.7,27.3,26.1,22.3,50.2"/>
<path class="st7" d="M5519.6,2268.3c5.1-24.1,23.3-40.5,40.6-37c17.3,3.7,27.3,26.1,22.3,50.2"/>
<path class="st7" d="M5445.9,2278.7c-10.3,14.3-37.4,46.2-50.1,52.2"/>
<path class="st7" d="M5453,2380.1c14.7,3,47,5.1,79.7-1.1c6.7,23.8,0,76-60.8,84.6"/>
<path class="st7" d="M2378.9,2755h387.3"/>
<path class="st7" d="M2084.9,3918.3L1957,2883c0-70.7,57.3-128,128-128h48.2"/>
<path class="st7" d="M6071.9,2784.6H5804"/>
<path class="st7" d="M6044.6,3918.6l151.9-875.9"/>
<path class="st7" d="M3505.3,2098.9l-0.1,83.8l173.3-177h477.7v-286h-68.5"/>
<path class="st7" d="M3937,1719.7h-431.5v238"/>
<path class="st7" d="M3581,1806.4h472.3"/>
<path class="st7" d="M3581,1918H3746"/>
<path class="st7" d="M4882.7,1337.5h89.9v286l0.2,177l-173.3-177h-477.7v-38.5"/>
<path class="st7" d="M4322,1474.5v-137h360.1"/>
<path class="st7" d="M4897.2,1424.2h-472.3"/>
<path class="st7" d="M4592.7,1535.9h-164.9"/>
<path class="st4" d="M2301.5,3245.4l0.4,1.3c-16.8,37.6-167.1,463.3-160.5,498.5c6.6,35.5,41.8,98.1,67.8,112.6
	c11.8,6.6,130.5,32.1,272,62.4h853.4c-17.4-44.4-90.3-81-157.7-81.2c-22.9-0.8-58.6,0.8-84.6,30.5
	c-257.1-118.7-545.1-186.5-628.8-208.3l-9.2-23.7c27.9-53.2,111.7-207.3,123.4-231.4c-44.5-22.6-273.2-159-275.3-160.2l-0.1-0.4
	l-0.1,0.2C2302.3,3245.8,2301.5,3245.4,2301.5,3245.4z"/>
<path class="st7" d="M2172.5,3565.1c-25.4,80-44,145.8-41.6,158.8c6.6,35.5,41.8,98.1,67.7,112.6c14.3,8,182.2,43.8,361.3,82.5"/>
<path class="st7" d="M2290.7,3224c-6.6,14.3-38.8,103.7-72.6,203.1"/>
<path class="st7" d="M2569.5,3383.3c-17.3,28.3-130.2,241.2-133,250.1c53.3,15.6,370,85.2,647.4,213.3c26-29.7,61.8-31.2,84.6-30.5
	c77.8,0.1,161.6,40.4,161.6,102.2"/>
<path class="st6" d="M2694.9,2863.7c191.9,112.2-9.2,539.1-61.1,552.7c-102.1,7-337-140.3-359.7-199.9
	C2251.4,3156.8,2505.5,2753.1,2694.9,2863.7z"/>
<path class="st7" d="M2752.6,3111.2c-28.6,136.4-102.3,269.1-130.9,276.6c-102.1,7-337-140.3-359.7-199.9
	c-8.2-21.9,20.6-89.9,69.8-162"/>
<path class="st7" d="M2450.5,2890.7c73.7-63.3,158-99.2,232.5-55.6c29.6,17.3,49.8,42.2,62.7,71.7"/>
<path class="st4" d="M2807.8,2832c28-76,23.6-331.3,20.8-356.5c-3.4-30.5-26.3-250.3,28.8-296.8c55.2-46.5,139.8-98.5,189.9-94.9
	c50.1,3.6,198.9,153.3,198.9,334.6c0,181.3-164.9,268-203.5,269.2c-5.3,40.3-4.9,148-4.9,187
	C3021.9,2889.8,2848.4,2884.7,2807.8,2832z"/>
<path class="st8" d="M2835.3,2316.4c-25.8-1.6-45.9,21.8-67.5,44c-19.4-143.2,48.1-394.8,144.8-411.9c16.6,0.7,18.7,22.6,13.9,42
	c60.7-55.4,174.7-86.2,223-86.5c62.7,0,84.9,49.4,84.9,66.4c0,43-28.2,107.2-38.6,123.9c16.6-8.8,29.9-12,42.7-12
	c32.3,0,40.1,50.1,40.1,64.9c0,52-55.1,105-82.5,105c-12.8,0-48.2-19.9-59-34.9c3.8,11.1,8,14.2,8.1,31.2
	c0.1,14-20.3,21.8-32.4,21.8c-32.2,0-95.9-62.7-154.2-62.7c-19.4,0-43.9,27.9-43.9,43.5s8.2,89.7,3.3,92.2
	c-15.1,11.8-22-23.4-81.8-27.2"/>
<path class="st7" d="M3200.9,2508.9c-37.3,92.1-113.4,155.2-201.2,155.2c-44.5,0-85.9-16.1-120.9-44.1"/>
<path class="st7" d="M3192.4,2234.1c22.2,43.9,32.8,90.9,32.8,146.7c0,13.2-0.8,26.2-2.2,39"/>
<path class="st7" d="M3017.1,2851.5c-2.4-45-1.1-162,5-187.5"/>
<path class="st7" d="M2807.5,2689.7c-3.5,45.8-9.3,88.9-18.7,118.4c17.9,20.9,65.8,37,115.5,44.4"/>
<path class="st7" d="M2807.4,2455.3c2.7,13.1,5.5,73.9,4.2,143.9"/>
<path class="st9" d="M2967.6,2325.2c0-13.5,5.9-24.5,13-24.5c7.2,0,13,10.9,13,24.5c0,13.5-5.9,24.5-13,24.5
	C2973.5,2349.8,2967.6,2338.8,2967.6,2325.2z"/>
<path class="st9" d="M3153,2335.1c0-13.5,5.9-24.5,13-24.5c7.2,0,13,10.9,13,24.5s-5.9,24.5-13,24.5
	C3158.7,2359.6,3153,2348.6,3153,2335.1z"/>
<path class="st7" d="M3100.7,2390c3,21.7,20.7,57.9,40.2,71.8"/>
<path class="st7" d="M3090.1,2514.3c-13.4-1.8-56-24.7-64.6-41.1c-15.8,7.6-23.7,61.6,8.6,69.8"/>
<path class="st7" d="M3192.7,2234c-3.8,1.3-7.4,2.1-10.4,2.1c-25.8,0-69.1-43.3-69.1-43.3c9.8,23.8,15.6,30.7,15.6,40.4
	s-12.1,20.4-30.1,20.9c-43.9,1.3-92.2-62.5-153.9-62.5c-16,0-47.4,22-47.4,48.5c0,17.9,5.6,69.4,5.6,81.7c0,4.9-2.8,8.2-8.1,10.4"/>
<path class="st7" d="M3101.7,1892.4c9.9-1.3,19.7-2.1,29.5-2.1c47.7,0,86.2,32.1,86.2,68.2s-26.8,107.1-44.8,124.2
	c23.8-10.7,30.7-14.6,47.2-14.6c34.9,0,41.4,37,41.4,64.7c0,48.7-41,91.5-68.4,101.2"/>
<path class="st7" d="M2803.7,2033.5c31.4-65.9,68.1-100.8,85.1-100.8c32.8,0,22.2,34.6,20.9,45.7c12-12.2,59.1-44,115.8-65.8"/>
<path class="st7" d="M2750.4,2268.8c2.3-66.3,13.3-123.8,28.4-171.3"/>
<path class="st4" d="M2850.3,2463.1c-4.1,0.7-8.2,1-12.5,1c-43.3,0-78.5-35.1-78.5-78.5c0-43.3,35.1-78.5,78.5-78.5
	c30.1,0,56.2,17,69.5,41.8"/>
<path class="st7" d="M2841.3,2455.6c-4.1,0.7-8.2,1-12.5,1c-43.3,0-78.5-35.1-78.5-78.5c0-43.3,35.1-78.5,78.5-78.5
	c30.1,0,56.2,17,69.5,41.8"/>
<path class="st4" d="M5976.1,3277.6c-57.4,29.5-167.8,46.7-307.2,51.6c3.9,81.9,22.6,340.2,32.6,481.9
	c-21.7,31.6-53.4,73-78.7,105.3h237.7c37.2-59.9,88.6-145.8,96.2-166.2C5968.3,3718.7,5971.6,3414.1,5976.1,3277.6z"/>
<path class="st7" d="M5964.5,3251.3c-1.1,37.5-11.6,463-20.6,489.3c-9,26.4-81.7,147.1-105,178.3"/>
<path class="st6" d="M5723.4,2778.4c192.9-42.2,325.2,426.6,297,466c-28.2,39.4-375.8,96.6-406.8,68.4
	C5582.5,3284.6,5561.9,2813.7,5723.4,2778.4z"/>
<path class="st7" d="M5771.6,3293.4c-83.8,12.4-161.1,16.8-175.1,4.2c-18.2-16.6-32.8-185.5-9.2-329.4"/>
<path class="st7" d="M5737.9,2760.9c175.4,11.2,292.1,431.2,265.4,468.5c-7.8,10.8-39.7,23.1-82.6,34.5"/>
<path class="st10" d="M2104.5,3939.7"/>
<path class="st11" d="M5764.4,2356.6c49.5-49.1,76.3-155.8,76.3-214.1c0-120-70.5-169.2-83.8-169.2c-13.2,0-27.1,27.7-24.9,47.1
	c-11.9-16.6-116.5-118.8-304.9-118.8c-52.2,0-89.7,25.3-89.7,66.9c0,19,8.8,48.4,23.9,58.6c-15.5,1.2-37.4,12.2-37.4,42.9
	c0,35.1,47,51.7,65.7,51.7s46.4-19.4,59.7-37.6c4.1,20-8.5,52.8,35.3,53c18.4,0.1,96.1-39.2,110.6-52.3c-14.7,25.4-35,37.1-35,65.7
	c0,26.9,13.1,45.6,33.5,45.6s78.9-27.6,89.7-40.1c2.3,18.2-18,145.3-11.9,180c20.4,1.5,45.4-24.4,45.7-3.1"/>
<path class="st7" d="M5539.8,2094.5c19.1-9.9,36.1-19.8,42.2-25.3c-14.7,25.4-35,37-35,65.7c0,26.9,13.1,45.6,33.5,45.6
	s78.9-27.6,89.7-40.1c2.3,18.2-18,145.3-11.9,180c20.4,1.5,45.4-24.4,45.7-3.1"/>
<path class="st7" d="M5469.3,1889.1c-17.7-2-36.3-3-55.7-3c-52.2,0-89.7,25.3-89.7,66.9c0,18.9,8.8,48.4,23.9,58.5
	c-15.5,1.2-37.4,12.2-37.4,42.9c0,35.1,47,51.7,65.7,51.7s46.4-19.4,59.7-37.6c3.8,18.3-6.4,47.4,25.4,52.3"/>
<path class="st7" d="M5820.5,2187.7c4.4-22.6,6.7-43.8,6.7-60.8c0-120-70.5-169.2-83.8-169.2c-13.2,0-27.1,27.7-24.9,47.1
	c-8-11.1-57.9-60.9-146.8-92.4"/>
<path class="st7" d="M5750.9,2341c17.1-16.9,31.5-40.7,43-67.1"/>
<path class="st7" d="M5691.2,2321c5.5-2.1,11.5-3.1,17.7-3.1c28.3,0,51.3,23,51.3,51.3c0,28.3-23,51.3-51.3,51.3
	c-22.5,0-41.7-14.5-48.5-34.8"/>
<path class="st7" d="M2002.7,3918.8h4249.5"/>
</svg>
